# xmcd CD Database Entry
#
# Track frame offsets:
# 150
# 32457
# 55747
# 78607
# 104517
# 117567
# 145590
# 163620
# 185460
# 209510
# 227370
#
# Disc length: 3220 seconds
#
# Revision: 3
# Processed by: cddbd v1.4b41PL1 Copyright (c) Steve Scherf et al.
# Submitted via: tcd 2.0b
#
DISCID=8f0c920b
DTITLE=Ablaze - Terre Nouvelle
DYEAR=1900
DGENRE=
TTITLE0=Le blues de la mitraille
TTITLE1=Hommage à Jim
TTITLE2=Les larmes
TTITLE3=La porte de printemps
TTITLE4=Le sale type
TTITLE5=Bis art
TTITLE6=Le soir venu
TTITLE7=Ça se passe dans le bois
TTITLE8=L'hiver l'enfer
TTITLE9=Les nuages
TTITLE10=L'accusé
EXTD=
EXTT0=
EXTT1=
EXTT2=
EXTT3=
EXTT4=
EXTT5=
EXTT6=
EXTT7=
EXTT8=
EXTT9=
EXTT10=
PLAYORDER=
